<svg width="83" height="26" viewBox="0 0 83 26" fill="none" xmlns="http://www.w3.org/2000/svg">
<path d="M2.97258 15.4L2.95258 15.42C2.97258 15.4 2.97258 15.4 2.97258 15.38V15.28C3.19258 14.1 3.61258 12.94 4.03258 11.8C4.47258 10.6 4.89258 9.42 5.45258 8.28C5.97258 7.2 6.57258 6.14 7.25258 5.16C7.85258 4.26 8.57258 3.28 9.49258 2.68C9.77258 2.6 10.0526 2.3 10.4126 2.36C10.7726 2.42 10.7726 2.8 10.6926 3.16C10.7926 2.88 10.8526 2.58 10.6126 2.38C10.2926 2.14 9.67258 2.52 9.41258 2.7C9.29258 2.74 9.17258 2.82 9.07258 2.9C9.13258 2.84 9.21258 2.78 9.31258 2.72L9.21258 2.76L9.49258 2.6C9.81258 2.42 10.5326 2.02 10.7726 2.54C10.9526 2.96 10.6726 3.66 10.5326 4.06C10.2726 4.74 9.95258 5.38 9.61258 6.02C9.67258 5.88 9.91258 5.34 9.91258 5.34C9.77258 5.32 9.13258 6.8 9.01258 6.84H9.03258C8.95258 6.9 8.89258 6.96 8.89258 6.98C8.85258 7.22 9.13258 7.16 9.29258 7.14C9.97258 7.06 10.8526 6.48 11.2926 5.98C11.7726 5.44 11.9526 4.62 11.9526 3.9V3.88C11.9326 2.52 10.9926 0.799999 9.37258 0.899999C8.47258 0.939999 7.63258 1.82 7.05258 2.42C6.63258 2.9 6.23258 3.42 5.87258 3.94C5.71258 4.18 5.55258 4.4 5.41258 4.64C5.25258 4.86 4.93258 5.2 4.85258 5.46C4.85258 5.46 4.95258 5.34 5.03258 5.26C4.81258 5.6 4.61258 5.96 4.41258 6.3C4.39258 6.28 4.53258 6 4.53258 6C4.35258 5.96 3.53258 7.6 3.43258 7.78C3.07258 8.44 2.75258 9.1 2.53258 9.8C2.29258 10.58 1.97258 11.32 1.73258 12.08C1.61258 12.46 1.49258 12.82 1.41258 13.2C1.37258 13.38 1.33258 13.54 1.31258 13.72C1.31258 13.74 1.27258 14.06 1.31258 14.02C1.27258 14.16 1.27258 14.34 1.25258 14.48C1.25258 14.48 1.25258 14.14 1.27258 14.1C1.19258 14.2 1.25258 14.58 1.23258 14.62C1.13258 15.38 0.972579 16.18 1.23258 16.92C1.57258 17.94 2.41258 18.78 3.33258 19.32C3.81258 19.62 4.45258 19.96 5.05258 19.92C5.75258 19.88 6.43258 19.3 6.95258 18.88C8.47258 17.6 9.85258 15.8 10.1126 13.76C10.1326 13.62 10.2326 12.92 9.99258 12.9C9.77258 12.88 9.61258 13.36 9.53258 13.48C8.93258 14.46 8.23258 15.38 7.45258 16.22C6.65258 17.1 5.65258 18.04 4.43258 18.32C4.27258 18.36 4.09258 18.38 3.91258 18.38C3.67258 18.36 3.45258 18.3 3.27258 18.12C3.17258 18.02 3.07258 17.68 2.95258 17.62C2.95258 17.52 2.93258 17.42 2.91258 17.36L2.85258 17.24C2.83258 16.64 2.85258 16.08 2.95258 15.46V15.44C2.95258 15.42 2.97258 15.42 2.97258 15.4ZM6.49258 5.62C5.71258 6.9 5.05258 8.22 4.39258 9.58C4.01258 10.38 3.63258 11.2 3.33258 12.06C3.75258 10.72 4.25258 9.44 4.85258 8.16C5.57258 6.62 6.53258 5.12 7.67258 3.88C7.21258 4.44 6.81258 5.08 6.49258 5.62ZM8.55258 3.42C8.27258 3.7 8.01258 4.02 7.77258 4.32C8.15258 3.82 8.55258 3.32 9.05258 2.92C8.87258 3.08 8.69258 3.28 8.55258 3.42ZM10.5926 3.58C10.6326 3.46 10.6726 3.32 10.6926 3.16C10.6526 3.34 10.5726 3.52 10.5726 3.66C10.5926 3.62 10.5926 3.6 10.5926 3.58ZM21.473 12.02C21.473 12.02 21.493 12.04 21.473 12C21.373 11.86 21.233 11.96 21.093 12C20.513 12.12 19.913 12.26 19.313 12.36C19.533 11.64 19.753 10.88 19.833 10.14C19.873 9.86 19.893 9.56 19.833 9.28C19.793 9.1 19.733 8.92 19.633 8.76C19.633 8.76 19.393 8.46 19.453 8.62L19.433 8.6L19.353 8.44L19.433 8.52C19.453 8.4 19.113 8.18 19.113 8.18C18.613 7.68 17.933 7.3 17.253 7.68C16.833 7.92 16.493 8.32 16.213 8.72C16.113 8.86 16.013 9.02 15.933 9.18C15.853 9.34 15.733 9.86 15.613 9.94C15.513 10.02 15.213 10.04 15.073 10.12C14.873 10.2 14.693 10.3 14.533 10.42C14.153 10.66 13.853 11 13.573 11.34C13.093 11.98 12.853 12.7 12.513 13.34C11.873 14.56 12.573 16.16 13.753 16.74C14.133 16.92 14.573 17 14.973 16.96C15.393 16.9 15.793 16.68 16.113 16.44C16.413 16.22 17.073 15.82 17.193 15.48C17.193 15.46 17.153 15.48 17.093 15.54L17.673 14.86C17.693 14.88 17.533 15.08 17.533 15.08C17.673 15.14 18.393 14.08 18.473 14C18.613 13.76 18.753 13.5 18.913 13.26C19.053 13.08 19.013 13.1 19.213 13.02C19.193 13.04 19.453 12.96 19.493 12.96C19.713 12.92 22.053 12.76 21.473 12.02ZM14.553 16.06H14.533C12.873 16.3 14.793 12.78 14.833 12.58L14.713 12.76C15.013 12.16 15.293 11.68 15.433 11.52C15.653 12.52 16.733 12.9 17.613 13.02C17.033 14.18 15.953 15.8 14.553 16.06ZM18.493 10.52C18.353 11.08 18.233 11.82 17.933 12.32C17.833 12.52 17.893 12.46 17.693 12.5C17.573 12.54 17.313 12.5 17.193 12.48C16.973 12.46 16.713 12.42 16.553 12.28C16.273 12.04 16.313 11.66 16.353 11.32C16.393 10.98 16.493 10.66 16.613 10.34C16.673 10.22 17.053 9.58 16.993 9.46C16.973 9.4 16.753 9.76 16.733 9.78C16.853 9.56 16.973 9.44 17.073 9.3C17.053 9.3 17.073 9.28 17.093 9.24V9.26L17.113 9.22C17.113 9.22 17.113 9.2 17.133 9.2C17.433 8.8 18.173 7.9 18.573 8.52C18.873 9.04 18.593 10.02 18.493 10.52ZM17.113 9.22L17.133 9.2C17.133 9.22 17.113 9.22 17.113 9.22ZM29.4855 12.14C29.3655 11.62 28.8855 12.32 28.7855 12.44L27.6855 13.92L26.6055 15.34L26.0255 16.08C25.9655 16.16 25.5255 16.72 25.5655 16.72C25.6055 16.68 25.6655 16.68 25.7255 16.62C25.4255 16.94 24.3255 17.94 24.1255 17.7C23.9655 17.5 24.4055 16.66 24.4655 16.46C24.6855 15.88 24.8855 15.28 25.1255 14.72C25.3855 14.14 25.6855 13.56 25.9255 12.98C26.1655 12.36 25.8055 12.14 25.2255 12C24.9655 11.94 24.6455 11.94 24.3455 11.9C24.3455 11.92 24.3655 11.92 24.3655 11.92C24.6255 11.96 25.0055 11.98 25.3255 12.08C24.8455 11.94 24.2455 12 23.8655 11.9C23.6055 11.84 23.4455 11.84 23.4855 11.54C23.5255 11.14 23.9455 10.72 24.0855 10.34C24.0855 10.36 23.9455 10.72 23.9655 10.72C24.0655 10.76 24.2255 10.2 24.2255 10.12C24.2055 10.02 23.9655 9.72 23.9455 9.84L23.9855 9.9C23.0255 9.24 21.8855 10.6 22.0855 11.58C22.1255 11.72 22.2055 11.8 22.2655 11.96C22.3055 12.08 22.2655 12.22 22.3855 12.38C22.8055 12.9 23.5655 12.92 24.1655 12.8C24.0655 12.94 23.0055 15.18 23.0655 15.2L22.9255 15.7C22.9055 15.68 22.9855 15.52 22.9455 15.52C22.8055 15.5 22.5255 16.66 22.5055 16.76C22.4255 17.24 22.4455 17.66 22.6455 18.1C22.7655 18.38 22.9055 18.62 23.1655 18.78C23.4055 18.94 23.7055 19.02 23.9855 18.96C24.0855 18.92 24.4655 18.66 24.3655 18.68L24.5055 18.62C24.4855 18.64 24.4655 18.66 24.4655 18.68C24.5255 18.7 25.4455 17.96 25.5655 17.88C26.2055 17.34 26.7255 16.68 27.2055 16.02C27.6855 15.34 28.1855 14.66 28.6455 13.98C28.8655 13.66 29.0655 13.34 29.2255 13C29.3455 12.76 29.5455 12.42 29.4855 12.14ZM23.5055 14.54C23.6455 14.18 23.8055 13.84 23.9855 13.5C24.0255 13.44 24.3055 12.72 24.4455 12.68C24.3455 12.74 23.9255 13.72 23.8255 13.9L23.4455 14.78C23.2455 15.26 23.0255 15.76 22.8855 16.28C23.0255 15.68 23.2655 15.1 23.5055 14.54ZM23.0255 18.38C23.1455 18.54 23.3055 18.7 23.5255 18.78C23.3455 18.72 23.1855 18.62 23.0655 18.5C23.0855 18.5 23.0855 18.52 23.0855 18.54C22.9655 18.38 22.8055 18.04 22.7855 17.98C22.7255 17.74 22.7055 17.46 22.7255 17.22C22.7255 17.02 22.7455 16.86 22.7855 16.68V16.7C22.7455 16.96 22.7255 17.22 22.7455 17.5V17.6C22.7255 17.58 22.7255 17.56 22.7255 17.56C22.7255 17.56 22.7255 17.58 22.7455 17.62V17.64L22.8255 18.06L22.7655 17.8C22.8055 17.92 22.9055 18.14 23.0055 18.36L22.9855 18.34C22.9855 18.36 23.0055 18.38 23.0255 18.4V18.38ZM23.5855 11.78C23.6855 11.86 23.8655 11.88 24.0455 11.9C23.8855 11.88 23.7455 11.84 23.6455 11.76C23.6455 11.76 23.5255 11.66 23.5055 11.62C23.5055 11.66 23.5455 11.76 23.5855 11.78ZM25.6855 13.34L25.2655 14.22L25.6855 13.32V13.34ZM22.8055 16.62C22.8055 16.64 22.7855 16.66 22.7855 16.68V16.66C22.7855 16.64 22.8055 16.64 22.8055 16.62ZM25.7055 13.28V13.3H25.6855L25.7055 13.28ZM25.7055 13.28V13.3H25.6855L25.7055 13.28ZM22.8255 16.36C22.8255 16.34 22.8455 16.32 22.8455 16.28C22.8455 16.32 22.8255 16.34 22.8255 16.36ZM22.9055 18.2C22.9055 18.2 22.9255 18.22 22.9255 18.24C22.9255 18.22 22.9055 18.22 22.9055 18.2ZM23.5255 11.58C23.5055 11.58 23.5055 11.6 23.5055 11.6L23.5255 11.58ZM40.5438 12.04C40.4238 12.06 39.3838 12.38 39.4438 12.54C39.4438 12.56 39.4838 12.58 39.5038 12.58C39.1638 12.72 38.7238 12.74 38.3838 12.96C38.0038 13.22 37.6438 13.48 37.2438 13.7C37.6038 13.08 37.9438 12.42 38.1638 11.76C38.2438 11.52 38.7038 10.04 38.4038 9.88C38.3638 9.86 38.3438 10.04 38.3238 10.14C38.3438 9.34 38.0838 8.12 37.0038 8.04C36.3438 8 35.7238 8.82 35.3638 9.26C34.5438 10.3 33.8238 11.42 33.1038 12.5C32.9038 12.8 30.9038 16.04 30.9038 16.04C30.9038 16.04 31.0438 15.84 31.2238 15.58C31.0438 15.88 30.8638 16.2 30.7038 16.52C30.7838 16.22 31.5438 13.84 32.0238 12.44C32.0638 12.38 32.0838 12.3 32.1038 12.24L32.2238 11.9V11.92C32.4038 11.38 32.5838 10.84 32.7438 10.28C32.7438 10.34 32.6638 10.64 32.6838 10.64C32.8038 10.66 32.9638 9.82 32.8838 9.82L32.8238 9.92C32.8838 9.62 32.9838 9.48 32.8038 9.14C32.6638 8.84 32.4238 8.56 32.0838 8.48C31.4238 8.3 31.1038 8.84 31.1438 9.36C31.1438 9.44 31.2438 9.48 31.2438 9.56C31.2438 9.66 31.1438 9.84 31.1238 9.92C30.9838 10.34 30.8838 10.74 30.7238 11.14C30.6438 11.36 29.9038 13.44 29.9038 13.44C29.9438 13.42 29.9638 13.38 29.9838 13.34C29.9238 13.52 29.8638 13.7 29.7838 13.88C29.7638 13.86 29.8438 13.72 29.8038 13.72C29.6038 13.68 29.1038 15.36 29.0638 15.52C28.9838 15.9 28.8838 16.26 28.7438 16.64C28.6838 16.84 28.6038 17.04 28.5438 17.26C28.5438 17.28 28.4438 17.76 28.5438 17.58C28.5238 17.64 28.5038 17.68 28.5038 17.72C28.5038 17.7 28.4838 17.68 28.4838 17.66C28.4238 17.68 28.3838 18.1 28.3838 18.12C28.3038 18.34 28.2038 18.5 28.1038 18.7C27.8438 19.34 27.7038 20.04 27.6038 20.72C27.4438 21.76 26.9638 23.32 27.4838 24.28C27.6638 24.62 28.2238 25.32 28.6638 24.9C28.8638 24.7 28.8638 24.24 28.8838 24C29.0038 23.34 29.1038 22.66 29.2438 22L29.4238 21.08C29.4438 21.04 29.6038 20.3 29.5438 20.32C29.5038 20.36 29.4638 20.42 29.4438 20.48C29.5438 20.16 29.6838 19.86 29.8038 19.52C29.9638 19.04 30.0838 18.58 30.3238 18.14C30.6038 17.7 30.8438 17.22 31.1038 16.78C31.3038 16.42 31.4838 15.96 31.7038 15.66C31.7638 15.58 31.8838 15.54 31.9838 15.46C32.1838 15.24 32.3238 14.94 32.4838 14.7C32.7838 14.22 33.0438 13.74 33.3638 13.3C33.5038 13.1 35.1038 10.86 35.2638 10.72C35.2238 10.74 35.1838 10.76 35.1438 10.8C35.3038 10.6 35.4838 10.42 35.6438 10.26C35.6638 10.28 35.5238 10.4 35.5438 10.42C35.5838 10.44 36.5038 9.72 36.6638 9.7C37.1038 9.62 36.9438 10.46 36.8838 10.68C36.7838 11.14 36.5238 11.58 36.3038 11.98C36.1838 12.2 36.0638 12.4 35.9638 12.62C35.9438 12.64 35.7838 13.02 35.8438 12.98L35.7238 13.16C35.7638 13.1 35.7838 13.02 35.7838 13.02C35.7038 13.02 35.6038 13.36 35.5838 13.42C35.4638 13.62 35.3038 13.78 35.1438 13.94C34.7238 14.42 34.3438 14.92 33.9238 15.38C33.6038 15.72 33.1838 16.32 32.7038 16.44C32.3638 16.52 32.1038 16.34 32.2838 16.88C32.4038 17.26 32.8438 18.14 33.3238 18.14C33.7638 18.14 34.3038 17.48 34.5638 17.2C34.8638 16.86 35.2038 16.54 35.5238 16.18C35.6038 16.06 36.5238 14.96 36.6638 14.9H36.6438C36.8438 14.8 37.0438 14.88 37.3238 14.68C37.4838 14.56 37.5638 14.44 37.7438 14.32C37.8838 14.24 37.9438 14.14 38.0038 14.08C38.0038 14.08 38.0038 14.1 38.0238 14.1C38.2238 13.9 38.5038 13.96 38.7638 13.78C39.0838 13.56 39.4838 13.28 39.7638 13.02C40.1238 12.7 40.6238 12.52 40.7838 11.98C40.7038 12 40.6038 12 40.5438 12.04ZM30.3038 14.08V14.1C30.2838 14.36 30.1038 14.66 30.0038 14.9C29.8638 15.28 29.7438 15.66 29.6238 16.04C29.3638 16.84 29.0638 17.64 28.7438 18.4C28.4838 19.04 28.2438 19.74 28.0638 20.44C28.2838 19.46 28.6438 18.5 28.9238 17.58C29.1838 16.74 29.5838 15.92 29.9038 15.1C29.9438 15 30.3238 14.2 30.2838 14.04C30.3038 14.06 30.3038 14.08 30.3038 14.08ZM31.1838 14.68C31.1238 14.92 31.0638 15.14 30.9838 15.34C31.0438 15.14 31.1038 14.9 31.1838 14.68ZM33.9238 11.4L33.5438 11.96C33.6638 11.78 33.7838 11.58 33.9238 11.4ZM37.1838 13.82C37.2038 13.76 37.3038 13.74 37.3638 13.7L37.1838 13.82ZM32.4038 11.48C32.3838 11.5 32.3638 11.56 32.3438 11.64L32.4038 11.48ZM32.2638 11.82L32.3438 11.64L32.2638 11.82ZM33.3038 12.32V12.3C33.3238 12.28 33.3238 12.28 33.3238 12.26C33.3438 12.24 33.3238 12.28 33.3038 12.32ZM32.2638 11.82C32.2638 11.86 32.2438 11.88 32.2238 11.9L32.2638 11.82ZM28.0238 20.62C28.0238 20.6 28.0238 20.6 28.0438 20.58C28.0438 20.6 28.0438 20.6 28.0238 20.62ZM31.3038 14.44C31.3038 14.46 31.2838 14.46 31.2838 14.46L31.3038 14.44ZM49.702 12.02C49.702 12.02 49.722 12.04 49.702 12C49.602 11.86 49.462 11.96 49.322 12C48.742 12.12 48.142 12.26 47.542 12.36C47.762 11.64 47.982 10.88 48.062 10.14C48.102 9.86 48.122 9.56 48.062 9.28C48.022 9.1 47.962 8.92 47.862 8.76C47.862 8.76 47.622 8.46 47.682 8.62L47.662 8.6L47.582 8.44L47.662 8.52C47.682 8.4 47.342 8.18 47.342 8.18C46.842 7.68 46.162 7.3 45.482 7.68C45.062 7.92 44.722 8.32 44.442 8.72C44.342 8.86 44.242 9.02 44.162 9.18C44.082 9.34 43.962 9.86 43.842 9.94C43.742 10.02 43.442 10.04 43.302 10.12C43.102 10.2 42.922 10.3 42.762 10.42C42.382 10.66 42.082 11 41.802 11.34C41.322 11.98 41.082 12.7 40.742 13.34C40.102 14.56 40.802 16.16 41.982 16.74C42.362 16.92 42.802 17 43.202 16.96C43.622 16.9 44.022 16.68 44.342 16.44C44.642 16.22 45.302 15.82 45.422 15.48C45.422 15.46 45.382 15.48 45.322 15.54L45.902 14.86C45.922 14.88 45.762 15.08 45.762 15.08C45.902 15.14 46.622 14.08 46.702 14C46.842 13.76 46.982 13.5 47.142 13.26C47.282 13.08 47.242 13.1 47.442 13.02C47.422 13.04 47.682 12.96 47.722 12.96C47.942 12.92 50.282 12.76 49.702 12.02ZM42.782 16.06H42.762C41.102 16.3 43.022 12.78 43.062 12.58L42.942 12.76C43.242 12.16 43.522 11.68 43.662 11.52C43.882 12.52 44.962 12.9 45.842 13.02C45.262 14.18 44.182 15.8 42.782 16.06ZM46.722 10.52C46.582 11.08 46.462 11.82 46.162 12.32C46.062 12.52 46.122 12.46 45.922 12.5C45.802 12.54 45.542 12.5 45.422 12.48C45.202 12.46 44.942 12.42 44.782 12.28C44.502 12.04 44.542 11.66 44.582 11.32C44.622 10.98 44.722 10.66 44.842 10.34C44.902 10.22 45.282 9.58 45.222 9.46C45.202 9.4 44.982 9.76 44.962 9.78C45.082 9.56 45.202 9.44 45.302 9.3C45.282 9.3 45.302 9.28 45.322 9.24V9.26L45.342 9.22C45.342 9.22 45.342 9.2 45.362 9.2C45.662 8.8 46.402 7.9 46.802 8.52C47.102 9.04 46.822 10.02 46.722 10.52ZM45.342 9.22L45.362 9.2C45.362 9.22 45.342 9.22 45.342 9.22ZM57.7145 12.14C57.5945 11.62 57.1145 12.32 57.0145 12.44L55.9145 13.92L54.8345 15.34L54.2545 16.08C54.1945 16.16 53.7545 16.72 53.7945 16.72C53.8345 16.68 53.8945 16.68 53.9545 16.62C53.6545 16.94 52.5545 17.94 52.3545 17.7C52.1945 17.5 52.6345 16.66 52.6945 16.46C52.9145 15.88 53.1145 15.28 53.3545 14.72C53.6145 14.14 53.9145 13.56 54.1545 12.98C54.3945 12.36 54.0345 12.14 53.4545 12C53.1945 11.94 52.8745 11.94 52.5745 11.9C52.5745 11.92 52.5945 11.92 52.5945 11.92C52.8545 11.96 53.2345 11.98 53.5545 12.08C53.0745 11.94 52.4745 12 52.0945 11.9C51.8345 11.84 51.6745 11.84 51.7145 11.54C51.7545 11.14 52.1745 10.72 52.3145 10.34C52.3145 10.36 52.1745 10.72 52.1945 10.72C52.2945 10.76 52.4545 10.2 52.4545 10.12C52.4345 10.02 52.1945 9.72 52.1745 9.84L52.2145 9.9C51.2545 9.24 50.1145 10.6 50.3145 11.58C50.3545 11.72 50.4345 11.8 50.4945 11.96C50.5345 12.08 50.4945 12.22 50.6145 12.38C51.0345 12.9 51.7945 12.92 52.3945 12.8C52.2945 12.94 51.2345 15.18 51.2945 15.2L51.1545 15.7C51.1345 15.68 51.2145 15.52 51.1745 15.52C51.0345 15.5 50.7545 16.66 50.7345 16.76C50.6545 17.24 50.6745 17.66 50.8745 18.1C50.9945 18.38 51.1345 18.62 51.3945 18.78C51.6345 18.94 51.9345 19.02 52.2145 18.96C52.3145 18.92 52.6945 18.66 52.5945 18.68L52.7345 18.62C52.7145 18.64 52.6945 18.66 52.6945 18.68C52.7545 18.7 53.6745 17.96 53.7945 17.88C54.4345 17.34 54.9545 16.68 55.4345 16.02C55.9145 15.34 56.4145 14.66 56.8745 13.98C57.0945 13.66 57.2945 13.34 57.4545 13C57.5745 12.76 57.7745 12.42 57.7145 12.14ZM51.7345 14.54C51.8745 14.18 52.0345 13.84 52.2145 13.5C52.2545 13.44 52.5345 12.72 52.6745 12.68C52.5745 12.74 52.1545 13.72 52.0545 13.9L51.6745 14.78C51.4745 15.26 51.2545 15.76 51.1145 16.28C51.2545 15.68 51.4945 15.1 51.7345 14.54ZM51.2545 18.38C51.3745 18.54 51.5345 18.7 51.7545 18.78C51.5745 18.72 51.4145 18.62 51.2945 18.5C51.3145 18.5 51.3145 18.52 51.3145 18.54C51.1945 18.38 51.0345 18.04 51.0145 17.98C50.9545 17.74 50.9345 17.46 50.9545 17.22C50.9545 17.02 50.9745 16.86 51.0145 16.68V16.7C50.9745 16.96 50.9545 17.22 50.9745 17.5V17.6C50.9545 17.58 50.9545 17.56 50.9545 17.56C50.9545 17.56 50.9545 17.58 50.9745 17.62V17.64L51.0545 18.06L50.9945 17.8C51.0345 17.92 51.1345 18.14 51.2345 18.36L51.2145 18.34C51.2145 18.36 51.2345 18.38 51.2545 18.4V18.38ZM51.8145 11.78C51.9145 11.86 52.0945 11.88 52.2745 11.9C52.1145 11.88 51.9745 11.84 51.8745 11.76C51.8745 11.76 51.7545 11.66 51.7345 11.62C51.7345 11.66 51.7745 11.76 51.8145 11.78ZM53.9145 13.34L53.4945 14.22L53.9145 13.32V13.34ZM51.0345 16.62C51.0345 16.64 51.0145 16.66 51.0145 16.68V16.66C51.0145 16.64 51.0345 16.64 51.0345 16.62ZM53.9345 13.28V13.3H53.9145L53.9345 13.28ZM53.9345 13.28V13.3H53.9145L53.9345 13.28ZM51.0545 16.36C51.0545 16.34 51.0745 16.32 51.0745 16.28C51.0745 16.32 51.0545 16.34 51.0545 16.36ZM51.1345 18.2C51.1345 18.2 51.1545 18.22 51.1545 18.24C51.1545 18.22 51.1345 18.22 51.1345 18.2ZM51.7545 11.58C51.7345 11.58 51.7345 11.6 51.7345 11.6L51.7545 11.58ZM67.6327 12.18C67.6127 11.74 67.2527 12.12 67.1327 12.28C66.8727 12.66 66.6327 13.06 66.3927 13.44C65.8527 14.26 65.3127 15.08 64.6927 15.86C62.6327 18.4 64.0727 13.88 63.9127 13.92C63.8327 13.94 63.7727 14.24 63.7527 14.3C63.9127 13.58 64.2127 12.72 64.5927 12.02C64.8127 11.58 65.0727 11.22 64.6727 10.74C63.9327 9.84 63.0727 10.66 62.5927 11.28C62.3927 10.52 61.9927 9.4 61.0127 9.4C60.5727 9.4 60.3127 9.62 60.0127 9.88C59.8327 10 59.6927 10.02 59.5327 10.16C59.2727 10.34 59.0927 10.62 58.9127 10.86C58.2327 11.86 57.7527 13.12 57.5327 14.28C57.4327 14.84 57.3927 15.46 57.5527 16.02C57.6527 16.34 58.0127 17.06 58.4727 17C58.4927 17 58.4527 16.98 58.3927 16.94C58.6727 17.02 58.9927 16.98 59.2327 16.82C59.2527 16.86 59.0127 16.96 59.0127 16.96C59.2327 17.3 60.8727 15.32 60.9927 15.14C61.2527 14.78 61.4327 14.4 61.6727 14.02C61.8527 13.74 62.1327 13.38 62.3327 13.08C62.3127 13.22 62.3127 13.4 62.3127 13.4C61.9527 14.54 61.6127 15.78 62.0927 16.96C62.3127 17.56 62.8527 18.12 63.5327 18C64.1327 17.9 64.6327 17.32 64.9927 16.86C65.4327 16.34 65.8127 15.76 66.1927 15.16C66.5127 14.62 66.8127 14.08 67.0727 13.48C67.2327 13.1 67.6727 12.64 67.6327 12.18ZM61.8927 12.32C61.7927 12.46 61.6927 12.6 61.6127 12.74L61.0927 13.48C60.7527 13.98 60.3927 14.46 60.0127 14.92C59.9127 15.06 59.4327 15.68 59.2327 15.62C58.9327 15.52 59.2527 14.48 59.2927 14.32C59.3527 14.04 60.4127 10.96 60.6927 10.9C60.3327 10.88 59.1727 14.5 59.1127 14.8C59.2727 13.82 59.6327 12.86 60.0327 11.96C60.2527 11.5 60.7527 10.28 61.4127 10.28C61.7727 10.28 61.8527 11.02 61.9127 11.26C61.8927 11.22 61.7127 10.64 61.6927 10.66C61.5927 10.74 61.9927 11.84 61.9927 12C61.9927 12.16 61.9927 12.16 61.8927 12.32ZM62.3527 13.3C62.3527 13.3 62.4127 13.02 62.4327 12.96L62.5327 12.82L62.3527 13.3ZM62.0527 12.06V11.86C62.1127 11.94 62.1127 12 62.0527 12.06ZM75.4837 6.6C75.4637 6.32 75.1637 6.54 75.0037 6.54C74.2037 6.58 73.4037 6.58 72.6237 6.62C72.6237 6.6 72.6637 6.52 72.7237 6.4C72.6437 6.54 72.5837 6.62 72.5237 6.62C73.1237 5.4 73.7637 4.18 74.5237 3.06C74.5037 3.1 74.2037 3.6 74.2237 3.6C74.2837 3.62 75.0237 2.6 75.0437 2.46C75.0437 2.38 74.8637 2.58 74.8637 2.56C74.9837 2.44 75.1837 2.34 75.2437 2.18C75.3837 1.78 74.9637 1.6 74.6637 1.54C74.0437 1.42 73.3437 1.5 72.9437 2.02C72.5637 2.48 72.2837 3.02 72.0437 3.56C71.9237 3.8 71.7637 3.86 71.6037 4.08C71.3637 4.42 71.2037 4.82 71.0237 5.2C70.8637 5.54 70.7037 5.9 70.5637 6.26C70.4837 6.44 70.4837 6.58 70.3037 6.64C70.1237 6.72 69.7837 6.66 69.5837 6.68C68.8037 6.78 68.0437 6.74 67.2637 6.82C66.8637 6.84 66.4637 6.84 66.0837 6.98C66.0037 7 65.5637 7.1 65.5237 7.16C65.4037 7.38 65.8837 7.4 65.9837 7.42C66.7437 7.52 67.7037 7.6 68.4637 7.46C68.9837 7.36 69.5237 7.4 70.0837 7.36C69.8037 7.96 69.5837 8.6 69.3637 9.24L69.1237 9.94C69.0437 10.16 68.7837 10.58 68.7837 10.82C68.7837 10.86 68.8437 10.76 68.8837 10.66C68.7837 10.96 68.6637 11.26 68.5837 11.56C68.5837 11.54 68.6437 11.3 68.6237 11.3C68.5237 11.3 68.1237 12.52 68.0837 12.62C67.8837 13.22 67.6637 13.82 67.5637 14.46C67.4437 15.1 67.2837 15.72 67.1437 16.34C67.0637 16.66 66.9837 16.96 66.9437 17.28C66.9037 17.44 66.8637 17.62 66.8637 17.78C66.8637 17.82 66.8637 18.08 66.9037 18L66.8637 18.4V18.1C66.7437 18.24 66.8637 18.88 66.8837 19C66.9637 19.4 67.1637 19.76 67.5237 20C67.8437 20.24 68.3437 20.46 68.7237 20.28C69.2237 20.04 69.6437 19.48 69.9637 19.08C70.6637 18.26 71.3037 17.4 71.9437 16.54C72.5237 15.74 73.1237 14.96 73.6237 14.12C73.9037 13.64 74.4437 13.2 74.6237 12.66C74.7237 12.4 74.6637 12.08 74.3437 12.14C74.0837 12.2 73.7237 12.9 73.5637 13.1C72.8437 14 72.1637 14.92 71.4437 15.82L70.2837 17.24C70.1037 17.44 69.9237 17.66 69.7237 17.86C69.6437 17.96 69.1437 18.36 69.1637 18.48C69.1637 18.52 69.3837 18.34 69.4637 18.28C69.3637 18.4 69.2437 18.5 69.1437 18.6C69.1637 18.58 68.7437 18.82 68.6837 18.78C68.3037 18.62 68.6437 17.46 68.7037 17.18C69.0637 15.56 69.6037 13.92 70.1437 12.36C70.4637 11.5 70.7837 10.68 71.1437 9.84C71.3237 9.42 71.5037 8.98 71.7037 8.56L71.9837 7.8L71.7637 8.24C71.9037 7.88 72.1037 7.34 72.2237 7.32L72.1637 7.44C72.2037 7.38 72.2437 7.34 72.2837 7.32C72.5037 7.18 73.0637 7.32 73.3237 7.32C73.5037 7.32 73.7237 7.34 73.9037 7.28C74.0237 7.24 73.9837 7.18 74.1237 7.14C74.3637 7.1 74.6637 7.26 74.9237 7.18C75.1637 7.12 75.5037 6.9 75.4837 6.62V6.6ZM71.6837 7.76C70.7837 9.66 70.1037 11.7 69.3837 13.68C69.0437 14.58 68.7237 15.52 68.5037 16.46L68.4037 16.84C68.5437 16.12 68.7037 15.42 68.9037 14.72C69.3437 13.18 69.9037 11.66 70.5637 10.2C71.6837 7.7 72.6837 5.02 74.2837 2.76C73.2037 4.3 72.4837 6.06 71.6837 7.76ZM73.0037 5.78L73.4837 4.86C73.3837 4.88 73.2037 5.32 73.0037 5.78ZM70.9437 10.14C70.8037 10.52 70.6437 10.88 70.4837 11.24C70.6437 10.86 70.7837 10.46 70.9637 10.06C70.9437 10.1 70.9437 10.12 70.9437 10.14ZM72.7437 6.36L72.9437 5.92C72.8837 6.08 72.8037 6.24 72.7437 6.36ZM68.3837 18.96C68.3637 18.96 68.3437 18.94 68.3237 18.92L68.3837 18.96ZM82.3565 12.06C82.3565 12.08 82.3565 12.08 82.3365 12.06V12.04C82.0165 11.5 81.5965 12.24 81.4165 12.5C81.0765 12.96 80.7565 13.4 80.3965 13.82C80.0965 14.18 79.7765 14.54 79.5365 14.92C79.5365 14.96 79.4965 15.06 79.4965 15.06C79.4165 15.18 79.2965 15.28 79.1965 15.4C79.0165 15.58 78.8365 15.78 78.6365 15.96C78.3365 16.24 76.6565 17.82 76.4365 16.8C76.3165 16.3 76.4765 15.68 76.5765 15.2C76.6365 14.94 76.6965 14.7 76.7365 14.44C76.7765 14.24 76.7165 14.04 76.8165 13.84C76.8765 13.72 76.8965 13.74 77.0365 13.7L77.3765 13.58C77.5965 13.5 77.8165 13.42 78.0165 13.3C78.3165 13.12 78.5965 12.9 78.8565 12.68C79.4765 12.16 80.1365 11.54 80.3965 10.76C80.5365 10.32 80.5565 9.84 80.2765 9.46C80.0165 9.12 79.5765 8.94 79.1765 8.86C78.0965 8.66 77.2765 9.28 76.6565 10.1C75.8965 11.04 75.3565 12.2 75.0965 13.38C74.9565 13.96 74.8765 14.54 74.7765 15.14C74.6765 15.74 74.6165 16.3 74.9365 16.86C74.9165 16.66 74.8765 16.48 74.8765 16.3C74.8765 16.2 74.9165 16.1 74.9165 16.02C74.9165 15.98 74.8765 15.86 74.8765 15.8C74.8765 15.62 74.9165 15.48 74.9565 15.3C74.9765 15.12 74.9565 14.94 74.9765 14.76C74.9965 14.56 75.0765 14.4 75.1565 14.22C75.2165 14.06 75.2365 13.92 75.2965 13.76C75.3565 13.62 75.3965 13.46 75.4565 13.3C75.4765 13.2 75.5765 13.08 75.6365 12.96C75.5765 13.14 75.4565 13.3 75.4165 13.46C75.3565 13.7 75.3965 13.96 75.3765 14.2C75.3365 14.46 75.2565 14.72 75.2165 15C75.1765 15.26 75.0565 15.5 75.0165 15.76C74.9765 16 74.8965 16.18 74.9165 16.42C74.9165 16.56 74.9365 16.7 74.9565 16.82C74.9765 16.98 75.0765 17.08 75.1765 17.2C75.5165 17.6 75.9765 17.92 76.4965 18.06C76.8565 18.16 77.1765 18.14 77.5165 17.96C77.9965 17.7 78.4165 17.3 78.7765 16.92C79.1165 16.54 79.3765 16.12 79.6765 15.72C79.9565 15.36 80.2965 15.02 80.5765 14.66L81.6565 13.26L82.2765 12.44C82.3765 12.32 82.4365 12.22 82.3565 12.06ZM77.3965 12.28C77.4165 12.24 77.4165 12.22 77.4165 12.22C77.7165 11.58 77.9365 10.9 78.3565 10.28L78.7165 9.8C78.7965 9.7 78.9365 9.52 79.0765 9.48C79.3765 9.42 79.4565 9.94 79.4365 10.14L79.3565 10.56C79.3365 10.68 79.3765 10.76 79.3565 10.86C79.3165 10.98 79.2165 11.04 79.1565 11.14L78.8165 11.58C78.3565 12.12 77.7765 12.58 77.1365 12.92C77.2365 12.7 77.2965 12.48 77.3965 12.28Z" fill="white"/>
</svg>
